<svg xmlns="http://www.w3.org/2000/svg" width="20.521" height="10.931" viewBox="0 0 20.521 10.931">
  <g id="Layer_20" data-name="Layer 20" transform="translate(0)">
    <path id="Vector" d="M20.32,10.731a.685.685,0,0,1-.484.2H14.186a.685.685,0,0,1,0-1.37h3.982l-5.68-5.615L7.308,7.638a.685.685,0,0,1-.887-.079L.172,1.139A.685.685,0,0,1,1.152.184l5.841,6L12.163,2.5a.685.685,0,0,1,.88.072l6.108,6.036V4.6a.685.685,0,1,1,1.37,0v5.649A.685.685,0,0,1,20.32,10.731Z" transform="translate(20.521 10.931) rotate(180)" fill="#fff"/>
  </g>
</svg>
