<svg xmlns="http://www.w3.org/2000/svg" width="28" height="28" viewBox="0 0 28 28">
  <g id="calendar-silhouette_1" data-name="calendar-silhouette 1" transform="translate(-0.375)">
    <path id="calendar-silhouette_1_Background_Mask_" data-name="calendar-silhouette 1 (Background/Mask)" d="M0,0H28V28H0Z" transform="translate(0.375)" fill="none"/>
    <path class="icon" id="Subtraction_1" data-name="Subtraction 1" d="M19.833,22.833H3.5a3.477,3.477,0,0,1-2.475-1.025A3.524,3.524,0,0,1,0,19.333V7H23.333V19.333a3.5,3.5,0,0,1-3.5,3.5Zm-5.788-5.567h0L13.982,18l.288.063a6.563,6.563,0,0,0,.864.162,6.979,6.979,0,0,0,.756.045,2.206,2.206,0,0,0,1.53-.445,1.8,1.8,0,0,0,.477-1.372,2.3,2.3,0,0,0-.049-.509,1.094,1.094,0,0,0-.162-.374,1.12,1.12,0,0,0-.293-.283,2.679,2.679,0,0,0-.432-.23,1.592,1.592,0,0,0,.594-.553,1.5,1.5,0,0,0,.216-.805,1.474,1.474,0,0,0-.454-1.2,2.345,2.345,0,0,0-1.48-.374,5.5,5.5,0,0,0-1.782.288l.072.7.234-.036a7.651,7.651,0,0,1,1.314-.135,1.583,1.583,0,0,1,.887.189.683.683,0,0,1,.265.594,1.062,1.062,0,0,1-.081.428.946.946,0,0,1-.216.31.977.977,0,0,1-.306.194.954.954,0,0,1-.351.068h-1.2v.792h1.2a1.171,1.171,0,0,1,.805.247.906.906,0,0,1,.275.707.845.845,0,0,1-.365.765,1.8,1.8,0,0,1-.977.234,5.537,5.537,0,0,1-.7-.049c-.253-.033-.545-.083-.868-.148Zm-3.411-4.32a1.358,1.358,0,0,1,.833.207.8.8,0,0,1,.266.666,1.488,1.488,0,0,1-.14.644,2.775,2.775,0,0,1-.373.572l-.693.738L8.987,17.366v.8h3.825v-.828H10.04L11.4,16.016c.294-.289.534-.54.711-.747a2.381,2.381,0,0,0,.4-.621,2.105,2.105,0,0,0,.171-.882,1.553,1.553,0,0,0-.464-1.242,2.185,2.185,0,0,0-1.436-.4,6.206,6.206,0,0,0-1.746.252l.054.738.234-.036A7.318,7.318,0,0,1,10.634,12.947Zm-3.78.315v4.9h.918v-5.94H6.926L5,13.5l.423.684,1.429-.926Zm16.479-8.6H0V3.5A3.5,3.5,0,0,1,3.5,0H19.833a3.521,3.521,0,0,1,2.475,1.025A3.476,3.476,0,0,1,23.333,3.5V4.665Z" transform="translate(3 2.834)" fill="#7a84b1" stroke="rgba(0,0,0,0)" stroke-miterlimit="10" stroke-width="1"/>
  </g>
</svg>
