<svg xmlns="http://www.w3.org/2000/svg" width="22.687" height="29.096" viewBox="0 0 22.687 29.096">
  <g id="Group_165" data-name="Group 165" transform="translate(-1481.5 -548.688)">
    <g id="Group_165-2" data-name="Group 165" transform="translate(1970.517 323.665)">
      <path class="icon" id="Path_118" data-name="Path 118" d="M-250.13,245.36h3.652l-5.589-5.88v3.935A1.945,1.945,0,0,0-250.13,245.36Z" transform="translate(-221.172 -13.055)" fill="#7a84b1"/>
      <path class="icon" id="Path_119" data-name="Path 119" d="M-471.3,233.5a3.141,3.141,0,0,1-3.13-3.138v-4.837h-11.432a2.667,2.667,0,0,0-2.653,2.69v22.745a2.642,2.642,0,0,0,2.653,2.66h16.4a2.634,2.634,0,0,0,2.634-2.634V233.5Z" transform="translate(0 0)" fill="#7a84b1" stroke="#" stroke-width="1"/>
    </g>
    <path class="icon2" id="Vector" d="M12.833,16.333a1.167,1.167,0,0,1,0-2.333h7a1.167,1.167,0,1,1,0,2.333Z" transform="translate(1475.792 555.167)" fill="#eef0f7"/>
    <path class="icon2" id="Vector-2" data-name="Vector" d="M12.833,11.667a1.167,1.167,0,0,1,0-2.333h7a1.167,1.167,0,1,1,0,2.333Z" transform="translate(1475.792 555.167)" fill="#eef0f7"/>
    <path class="icon2" id="Vector-3" data-name="Vector" d="M12.833,7a1.167,1.167,0,0,1,0-2.333h7a1.167,1.167,0,1,1,0,2.333Z" transform="translate(1475.792 555.167)" fill="#eef0f7"/>
  </g>
</svg>
