<svg xmlns="http://www.w3.org/2000/svg" width="50.969" height="48.361" viewBox="0 0 50.969 48.361">
  <g id="icCoin" transform="translate(0 1)">
    <ellipse id="Ellipse_1" data-name="Ellipse 1" cx="16.665" cy="16.631" rx="16.665" ry="16.631" transform="translate(11 6.5)" fill="#f6eeff"/>
    <path id="Path_11" data-name="Path 11" d="M30.734,3a23.182,23.182,0,0,1,8.021,44.9A23.1,23.1,0,0,1,8.371,31.978" transform="translate(-3.871 -3)" fill="none" stroke="#6418c3" stroke-linecap="round" stroke-width="2"/>
    <circle id="Ellipse_2" data-name="Ellipse 2" cx="4" cy="4" r="4" transform="translate(0 24.843)" fill="#ef9123"/>
    <path id="Path_12" data-name="Path 12" d="M40.958,47.762a7.15,7.15,0,0,0,2.76-.536,7.032,7.032,0,0,0,2.759.536c2.874,0,5.125-1.533,5.125-3.492V41c0-1.958-2.251-3.492-5.125-3.492-.133,0-.264.006-.394.013V33.833c0-1.918-2.251-3.416-5.125-3.416s-5.125,1.5-5.125,3.416V44.346C35.833,46.264,38.084,47.762,40.958,47.762Zm9.067-3.492c0,.906-1.457,1.915-3.548,1.915s-3.548-1.009-3.548-1.915v-.729a7.069,7.069,0,0,0,7.1,0Zm-3.548-5.181c2.091,0,3.548,1.009,3.548,1.915s-1.457,1.914-3.548,1.914S42.929,41.909,42.929,41,44.386,39.089,46.477,39.089Zm-5.519-7.1c2.091,0,3.548.97,3.548,1.839s-1.457,1.84-3.548,1.84-3.548-.97-3.548-1.84S38.867,31.993,40.958,31.993ZM37.41,36.316a7.2,7.2,0,0,0,7.1,0v1.457A5.1,5.1,0,0,0,42.22,39.04a6.066,6.066,0,0,1-1.262.137c-2.091,0-3.548-.97-3.548-1.839Zm0,3.5a6.682,6.682,0,0,0,3.548.933c.14,0,.276-.017.414-.024a2.446,2.446,0,0,0-.02.275v1.644c-.132.008-.26.033-.394.033-2.091,0-3.548-.97-3.548-1.84Zm0,3.5a6.675,6.675,0,0,0,3.548.934c.132,0,.263-.01.394-.017v.028a2.733,2.733,0,0,0,.725,1.808,6.181,6.181,0,0,1-1.119.107c-2.091,0-3.548-.97-3.548-1.839Z" transform="translate(-15.833 -15.916)" fill="#6418c3"/>
  </g>
</svg>
