<svg xmlns="http://www.w3.org/2000/svg" width="37" height="44.016" viewBox="0 0 37 44.016">
  <g id="smartphone" transform="translate(-51 -12)">
    <g id="Group_200" data-name="Group 200" transform="translate(51 12)">
      <path id="Path_129" data-name="Path 129" d="M83.32,12H55.689A4.7,4.7,0,0,0,51,16.7v34.62a4.694,4.694,0,0,0,4.689,4.7H83.311A4.7,4.7,0,0,0,88,51.318V16.7A4.687,4.687,0,0,0,83.32,12Zm1.024,39.318a1.033,1.033,0,0,1-1.033,1.033H55.689a1.039,1.039,0,0,1-1.033-1.033V16.7a1.033,1.033,0,0,1,1.033-1.033H83.311A1.039,1.039,0,0,1,84.344,16.7Z" transform="translate(-51 -12)" fill="#2e3d83"/>
      <path id="Path_130" data-name="Path 130" d="M200.5,105.667a1.839,1.839,0,0,0-2.542.521l-.9,1.365V97.232a1.832,1.832,0,1,0-3.665,0v10.321l-.9-1.365a1.835,1.835,0,1,0-3.063,2.021l4.258,6.459a1.845,1.845,0,0,0,1.527.826,1.824,1.824,0,0,0,1.527-.826L201,108.209A1.817,1.817,0,0,0,200.5,105.667Z" transform="translate(-176.723 -87.908)" fill="#2e3d83"/>
      <path id="Path_131" data-name="Path 131" d="M225.553,401.2h-2.821a1.832,1.832,0,0,0,0,3.665h2.821a1.832,1.832,0,1,0,0-3.665Z" transform="translate(-205.638 -366.239)" fill="#2e3d83"/>
    </g>
  </g>
</svg>
