<svg xmlns="http://www.w3.org/2000/svg" width="25.434" height="25.435" viewBox="0 0 25.434 25.435">
  <g id="Group_167" data-name="Group 167" transform="translate(-99 -262.788)">
    <g id="Group_164" data-name="Group 164" transform="translate(99 262.788)">
      <path id="Path_114" data-name="Path 114" d="M24.254,12.683,25.37,9.772a.8.8,0,0,0-.242-.9L22.709,6.908l-.49-3.079a.8.8,0,0,0-.661-.66l-3.079-.49L16.519.259a.8.8,0,0,0-.9-.242L12.705,1.135,9.795.019a.793.793,0,0,0-.9.242L6.932,2.681l-3.079.49a.8.8,0,0,0-.66.66L2.7,6.91.283,8.871a.8.8,0,0,0-.242.9l1.116,2.911L.041,15.593a.793.793,0,0,0,.242.9L2.7,18.455l.49,3.079a.8.8,0,0,0,.66.661l3.079.49L8.894,25.1a.791.791,0,0,0,.9.242l2.909-1.114,2.911,1.116a.8.8,0,0,0,.9-.243l1.96-2.419,3.079-.49a.8.8,0,0,0,.661-.661l.49-3.079,2.419-1.96a.793.793,0,0,0,.242-.9Z" transform="translate(0.012 0.035)" fill="#7a84b1"/>
      <g id="Group_163" data-name="Group 163" transform="translate(7.948 6.359)">
        <path id="Path_115" data-name="Path 115" d="M162.384,132.769a2.384,2.384,0,1,1,2.384-2.384A2.387,2.387,0,0,1,162.384,132.769Zm0-3.179a.795.795,0,1,0,.795.795A.8.8,0,0,0,162.384,129.59Z" transform="translate(-160 -127.999)" fill="#fafafa"/>
        <path id="Path_116" data-name="Path 116" d="M258.384,292.769a2.384,2.384,0,1,1,2.384-2.384A2.387,2.387,0,0,1,258.384,292.769Zm0-3.179a.795.795,0,1,0,.795.795A.8.8,0,0,0,258.384,289.59Z" transform="translate(-251.231 -280.051)" fill="#fafafa"/>
        <path id="Path_117" data-name="Path 117" d="M160.808,140.7a.795.795,0,0,1-.645-1.257l7.948-11.127a.795.795,0,0,1,1.294.924l-7.948,11.127A.8.8,0,0,1,160.808,140.7Z" transform="translate(-160.014 -127.982)" fill="#fafafa"/>
      </g>
    </g>
  </g>
</svg>
