<svg xmlns="http://www.w3.org/2000/svg" width="57.213" height="49.953" viewBox="0 0 57.213 49.953">
  <g id="shop-2" transform="translate(0 -31.05)">
    <g id="Group_199" data-name="Group 199" transform="translate(0 31.05)">
      <path id="Path_127" data-name="Path 127" d="M259.832,263.75h-7.774a3.862,3.862,0,0,0-3.858,3.858v5.962a3.862,3.862,0,0,0,3.858,3.858h7.774a3.862,3.862,0,0,0,3.858-3.858v-5.962A3.862,3.862,0,0,0,259.832,263.75Zm1.052,9.82a1.055,1.055,0,0,1-1.052,1.052h-7.774a1.055,1.055,0,0,1-1.052-1.052v-5.962a1.055,1.055,0,0,1,1.052-1.052h7.774a1.055,1.055,0,0,1,1.052,1.052Z" transform="translate(-219.184 -236.546)" fill="#2e3d83"/>
      <path id="Path_128" data-name="Path 128" d="M57.213,47.417a1.3,1.3,0,0,0-.187-.69L48.515,31.763A1.41,1.41,0,0,0,47.3,31.05H9.9a1.386,1.386,0,0,0-1.216.713L.187,46.727a1.418,1.418,0,0,0-.187.69,8.206,8.206,0,0,0,4.91,7.505V79.6a1.407,1.407,0,0,0,1.4,1.4H50.888a1.407,1.407,0,0,0,1.4-1.4V55.1a.618.618,0,0,0-.012-.152A8.229,8.229,0,0,0,57.213,47.417ZM10.72,33.867H46.481l6.652,11.7H4.08Zm30,14.5a5.392,5.392,0,0,1-10.615,0Zm-13.6,0a5.4,5.4,0,0,1-10.627,0Zm-24.222,0H13.526a5.4,5.4,0,0,1-10.627,0ZM23.568,78.2H15.5V63.058a2,2,0,0,1,2-2h4.08a2,2,0,0,1,2,2V78.2Zm25.918,0H26.374V63.058a4.812,4.812,0,0,0-4.8-4.8h-4.08a4.812,4.812,0,0,0-4.8,4.8V78.209H7.716v-22.6c.164.012.327.012.491.012A8.2,8.2,0,0,0,15.01,52a8.2,8.2,0,0,0,13.608,0A8.177,8.177,0,0,0,42.2,52a8.2,8.2,0,0,0,6.8,3.624c.164,0,.316-.012.479-.012V78.2Zm-.479-25.38A5.389,5.389,0,0,1,43.7,48.375H54.325A5.422,5.422,0,0,1,49.006,52.818Z" transform="translate(0 -31.05)" fill="#2e3d83"/>
    </g>
  </g>
</svg>
