<svg id="star_1" data-name="star 1" xmlns="http://www.w3.org/2000/svg" width="14" height="14" viewBox="0 0 14 14">
  <path id="star_1_Background_Mask_" data-name="star 1 (Background/Mask)" d="M0,0H14V14H0Z" fill="none"/>
  <path id="XMLID_328" data-name="XMLID 328" d="M11.831,4.132,8.549,3.64,7.071.5A.863.863,0,0,0,5.5.5L4.047,3.629l-3.3.5a.873.873,0,0,0-.7.592.9.9,0,0,0,.209.919L2.646,8.088l-.564,3.447a.891.891,0,0,0,.364.88.848.848,0,0,0,.907.051l2.914-1.627,2.955,1.627a.85.85,0,0,0,.907-.051.89.89,0,0,0,.364-.88L9.927,8.084l2.39-2.441a.9.9,0,0,0,.209-.919h0A.873.873,0,0,0,11.831,4.132Z" transform="translate(1.032 0.731)" fill="#eef0f7"/>
</svg>
