<svg xmlns="http://www.w3.org/2000/svg" width="28" height="28" viewBox="0 0 28 28">
  <g id="calendar-silhouette_1" data-name="calendar-silhouette 1" transform="translate(-0.375)">
    <path id="calendar-silhouette_1_Background_Mask_" data-name="calendar-silhouette 1 (Background/Mask)" d="M0,0H28V28H0Z" transform="translate(0.375)" fill="none"/>
    <path class="icon" id="Subtraction_1" data-name="Subtraction 1" d="M19.833,17.833H3.5a3.5,3.5,0,0,1-3.5-3.5V13.167H23.333v1.166a3.48,3.48,0,0,1-1.025,2.475A3.524,3.524,0,0,1,19.833,17.833Zm3.5-7H0V3.5A3.5,3.5,0,0,1,3.5,0H19.833a3.524,3.524,0,0,1,2.475,1.025A3.477,3.477,0,0,1,23.333,3.5v7.332ZM19.6,6.1h0l.629,1.067h.642l-.906-1.524.913-1.476h-.648L19.6,5.241l-.625-1.074h-.648l.895,1.494-.895,1.506h.648L19.6,6.1Zm-2.85,0h0l.629,1.067h.642l-.905-1.524.912-1.476h-.648l-.63,1.074-.624-1.074h-.648l.894,1.494-.894,1.506h.648L16.746,6.1Zm-2.85,0h0l.629,1.067h.643l-.906-1.524.912-1.476h-.648L13.9,5.241l-.624-1.074h-.648l.894,1.494-.894,1.506h.648L13.9,6.1Zm-2.849,0h0l.629,1.067h.642l-.906-1.524.913-1.476h-.648l-.63,1.074-.625-1.074H9.775l.895,1.494L9.775,7.167h.648L11.047,6.1ZM3,4.167a1,1,0,0,0-1,1v1a1,1,0,0,0,1,1H5a1,1,0,0,0,1-1v-1a1,1,0,0,0-1-1Z" transform="translate(2 4.833)" fill="#7a84b1" stroke="rgba(0,0,0,0)" stroke-miterlimit="10" stroke-width="1"/>
  </g>
</svg>
